<?xml version="1.0" encoding="UTF-8"?><svg id="b" xmlns="http://www.w3.org/2000/svg" viewBox="0 0 180 180"><g id="c"><rect width="180" height="180" rx="20" ry="20"/><rect y="0" width="180" height="180" style="fill:none;"/><path d="M140.27,41.32s0,0,0,0c.77-.45,1.31-1.13,1.52-1.92.21-.79.08-1.65-.37-2.42l-1.79-3.07c-.45-.77-1.13-1.31-1.92-1.52-.79-.21-1.65-.08-2.43.37,0,0-18.18,10.63-19.96,11.67-12.9,7.55-18.01,8.76-25.28,8.76s-12.83-1.3-25.89-9.03c-1.24-.73-12.39-7.35-17.2-10.2-1.2-.71-1.83-1.08-2.2-1.28v-.02c-.75-.45-1.61-.59-2.41-.39-.8.2-1.48.74-1.94,1.5l-1.81,3.06c-.39.67-.54,1.41-.44,2.11-.19.6.04,1.26.58,1.61l20.39,12.09c14.96,8.84,21.89,10.4,30.91,10.4,10.18,0,16.69-2.17,30.26-10.11,1.81-1.06,19.78-11.52,19.96-11.62Z" style="fill:#fff;"/><path d="M155.96,61.79l-1.77-3.08c-.44-.77-1.12-1.31-1.91-1.53-.79-.22-1.65-.09-2.43.35-.18.1-18.22,10.44-20.05,11.48-13.66,7.78-18.8,12.33-23.89,21.15-4.51,7.81-6.63,14.59-6.45,31.97l.17,16.88c.03,3.27.06,5.69.06,5.7,0,.08,0,.15.02.23l.2,1.1c.09.5.44.9.89,1.07.56.46,1.28.71,2.09.71l3.55-.04c1.84-.02,3.16-1.37,3.14-3.21,0,0-.25-20.69-.26-22.54-.16-15.18,1.46-20.57,5.13-26.94,3.63-6.29,7.24-10.11,20.23-17.51l20.09-11.45c1.6-.92,2.09-2.74,1.18-4.34Z" style="fill:#fff;"/><path d="M50.19,69.01c-1.83-1.04-19.87-11.37-20.05-11.48-1.6-.92-3.42-.42-4.34,1.18l-1.76,3.08c-.91,1.6-.42,3.42,1.18,4.34,0,0,18.3,10.43,20.09,11.45,12.98,7.4,16.6,11.22,20.23,17.51,3.67,6.36,5.28,11.76,5.13,26.94-.02,1.84-.26,22.33-.27,22.55-.02,1.84,1.3,3.19,3.15,3.21l3.59.04c.76,0,1.45-.23,2-.66.57-.14,1-.63,1.06-1.23l.1-1,.23-22.8c.18-17.38-1.94-24.16-6.45-31.97-5.09-8.82-10.23-13.36-23.89-21.15Z" style="fill:#fff;"/></g></svg>