<svg xmlns="http://www.w3.org/2000/svg" width="180" height="180" viewBox="0 0 180 180"><path d="M20.9435759,20.0326846 L20.9435759,20.0326846 C20.4606639,19.7188202 20.407007,19.2480236 20.6752915,18.7249163 L23.1971655,14.5400579 C23.5191069,13.9646399 24.002019,13.8600184 24.5922448,14.1738828 C24.5922448,14.1738828 49.6500148,28.663955 51.8499475,29.9717233 C70.9518022,40.9569766 79.0539934,42.8401629 90,42.8401629 C100.89235,42.8401629 108.457972,41.1139088 127.291542,30.3378984 C129.813416,28.9255087 155.354098,14.330815 155.354098,14.330815 C155.944324,14.0169506 156.427236,14.1215721 156.749178,14.6969901 L159.271052,18.8818485 C159.592993,19.4572665 159.485679,19.9280631 158.895453,20.2419275 C158.895453,20.2419275 133.408428,34.7319997 130.832897,36.1967002 C112.374925,46.7111569 103.628851,49.5882471 90,49.5882471 C77.9271986,49.5882471 68.6445557,47.5481286 48.2549356,35.7782143 C45.9476891,34.4704461 20.9435759,20.0326846 20.9435759,20.0326846 C20.9435759,20.0326846 20.9435759,20.0326846 20.889919,20.0326846 C20.9435759,20.0326846 20.9435759,20.0326846 20.9435759,20.0326846 M64.6202886,91.8030062 C70.6298608,102.003599 73.4736763,110.896423 73.2053918,133.913144 C73.2053918,136.52868 72.8834504,164.828785 72.8834504,164.828785 C72.8834504,164.828785 72.8834504,164.828785 72.8834504,164.881096 C72.8834504,164.933407 72.8834504,164.985718 72.8834504,164.985718 L72.8834504,164.985718 C72.8297936,165.561136 72.5078522,165.822689 71.8639694,165.822689 L66.8738782,165.770379 C66.1763386,165.770379 65.8543972,165.404203 65.8543972,164.776475 C65.8543972,164.776475 66.1763386,136.371748 66.2299954,133.860833 C66.444623,112.256502 64.0300627,104.462203 58.5570594,95.2032037 C53.137713,85.9965152 47.7720235,80.5038885 28.8311395,69.9371211 C26.3092655,68.5247313 0.553955779,54.243902 0.553955779,54.243902 C-0.0362700679,53.9300377 -0.143583858,53.4592411 0.178357513,52.8838231 L2.64657469,48.6466539 C2.96851606,48.0712359 3.45142812,47.9666144 4.04165396,48.2804788 C4.04165396,48.2804788 29.635993,62.5613081 32.2651808,64.0260086 C50.8841234,74.3835331 57.8058629,80.3469563 64.6202886,91.8030062 M179.821642,52.9361338 C180.143584,53.5115518 180.03627,53.9823484 179.446044,54.2962128 C179.446044,54.2962128 153.690735,68.5770421 151.16886,69.9894318 C132.227976,80.5038885 126.862287,86.0488259 121.442941,95.2555144 C115.969937,104.514514 113.555377,112.308812 113.770005,133.913144 C113.823661,136.424059 114.145603,164.828785 114.145603,164.828785 C114.145603,165.508825 113.823661,165.822689 113.126122,165.822689 L108.136031,165.875 C107.492148,165.875 107.170206,165.613446 107.11655,165.038028 L107.11655,165.038028 C107.11655,165.038028 107.11655,164.985718 107.11655,164.933407 C107.11655,164.933407 107.11655,164.933407 107.11655,164.881096 C107.11655,164.881096 106.848265,136.580991 106.794608,133.965455 C106.579981,110.896423 109.370139,102.003599 115.379711,91.855317 C122.194137,80.3992671 129.115877,74.4358438 147.681162,64.0783193 C150.31035,62.6136189 175.904689,48.3327895 175.904689,48.3327895 C176.494915,48.0189252 176.977827,48.1235466 177.299768,48.6989647 L179.821642,52.9361338 Z"/></svg>