<svg xmlns="http://www.w3.org/2000/svg" width="153" height="141" viewBox="0 0 153 141"><path d="M159.398204,153.033141 C159.292492,153.14121 159.222018,153.321326 159.222018,153.501441 L159.222018,163.443804 C159.222018,164.776657 159.539152,165.929395 160.138185,166.93804 C160.737218,167.910663 161.618148,168.667147 162.745739,169.17147 C163.87333,169.711816 165.212345,169.963977 166.798019,169.963977 C168.383694,169.963977 169.722708,169.711816 170.885537,169.17147 C172.013128,168.631124 172.894058,167.910663 173.493091,166.93804 C174.092123,165.965418 174.409258,164.81268 174.409258,163.443804 L174.409258,153.501441 C174.409258,153.285303 174.338784,153.14121 174.233072,153.033141 C174.127361,152.925072 173.951175,152.853026 173.774988,152.853026 L170.638876,152.853026 C170.427453,152.853026 170.286504,152.925072 170.180792,153.033141 C170.075081,153.14121 170.004606,153.321326 170.004606,153.501441 L170.004606,163.15562 C170.004606,164.128242 169.722708,164.848703 169.123676,165.353026 C168.524643,165.857349 167.784661,166.073487 166.833257,166.073487 C165.881852,166.073487 165.14187,165.821326 164.542837,165.353026 C163.979042,164.848703 163.661907,164.128242 163.661907,163.15562 L163.661907,153.501441 C163.661907,153.285303 163.591433,153.14121 163.485721,153.033141 C163.380009,152.925072 163.203823,152.853026 163.027637,152.853026 L159.891525,152.853026 C159.644864,152.853026 159.503915,152.925072 159.398204,153.033141 M148.087057,153.033141 C147.981345,153.14121 147.910871,153.321326 147.910871,153.501441 L147.910871,168.991354 C147.910871,169.423631 148.122294,169.639769 148.54514,169.639769 L151.681253,169.639769 C151.892676,169.639769 152.033625,169.567723 152.139337,169.459654 C152.245048,169.351585 152.315523,169.17147 152.315523,168.991354 L152.315523,161.606628 C152.315523,160.057637 152.738369,158.940922 153.548825,158.220461 C154.359281,157.5 155.557347,157.067723 157.143022,156.995677 C157.354445,156.995677 157.495394,156.923631 157.601105,156.815562 C157.706817,156.707493 157.777292,156.527378 157.777292,156.347262 L157.777292,153.357349 C157.777292,153.177233 157.742054,153.033141 157.636343,152.889049 C157.530631,152.78098 157.389682,152.708934 157.213496,152.708934 L157.072547,152.708934 C156.15638,152.853026 155.345924,153.105187 154.641179,153.501441 C153.901198,153.897695 153.302165,154.402017 152.808844,154.978386 C152.667895,155.158501 152.526946,155.266571 152.385997,155.266571 C152.209811,155.266571 152.104099,155.086455 152.104099,154.726225 L152.104099,153.393372 C152.104099,153.177233 152.033625,153.033141 151.927913,152.925072 C151.822202,152.817003 151.646016,152.744957 151.46983,152.744957 L148.509903,152.744957 C148.368954,152.853026 148.192768,152.925072 148.087057,153.033141 M134.943574,153.033141 C134.837863,153.14121 134.767388,153.321326 134.767388,153.501441 L134.767388,155.338617 C134.767388,155.770893 134.978812,155.987032 135.401658,155.987032 L136.705435,155.987032 C136.916859,155.987032 137.057807,156.059078 137.163519,156.167147 C137.269231,156.275216 137.339705,156.455331 137.339705,156.635447 L137.339705,164.380403 C137.339705,166.037464 137.797789,167.334294 138.749194,168.23487 C139.700599,169.135447 141.004376,169.603746 142.660525,169.603746 L144.809995,169.603746 C145.021419,169.603746 145.162368,169.5317 145.268079,169.423631 C145.373791,169.315562 145.444265,169.135447 145.444265,168.955331 L145.444265,166.793948 C145.444265,166.57781 145.373791,166.433718 145.268079,166.325648 C145.162368,166.217579 144.986181,166.145533 144.809995,166.145533 L143.752879,166.145533 C143.153846,166.145533 142.660525,165.965418 142.308153,165.569164 C141.955781,165.172911 141.779595,164.632565 141.779595,163.876081 L141.779595,156.635447 C141.779595,156.20317 141.991018,155.987032 142.413865,155.987032 L144.88047,155.987032 C145.303316,155.987032 145.51474,155.770893 145.51474,155.338617 L145.51474,153.501441 C145.51474,153.285303 145.444265,153.14121 145.338554,153.033141 C145.232842,152.925072 145.056656,152.853026 144.88047,152.853026 L142.413865,152.853026 C141.991018,152.853026 141.779595,152.636888 141.779595,152.204611 L141.779595,148.854467 C141.779595,148.638329 141.70912,148.494236 141.603409,148.386167 C141.497697,148.278098 141.321511,148.206052 141.145325,148.206052 L137.973975,148.206052 C137.762552,148.206052 137.621603,148.278098 137.515891,148.386167 C137.41018,148.494236 137.339705,148.674352 137.339705,148.854467 L137.339705,152.204611 C137.339705,152.420749 137.269231,152.564841 137.163519,152.672911 C137.057807,152.78098 136.881621,152.853026 136.705435,152.853026 L135.401658,152.853026 C135.225472,152.853026 135.049286,152.925072 134.943574,153.033141 M118.593505,153.033141 C118.487794,153.14121 118.417319,153.321326 118.417319,153.501441 L118.417319,168.991354 C118.417319,169.423631 118.628743,169.639769 119.051589,169.639769 L122.222939,169.639769 C122.645785,169.639769 122.857209,169.423631 122.857209,168.991354 L122.857209,160.129683 C122.857209,158.904899 123.174344,157.9683 123.773376,157.319885 C124.372409,156.67147 125.147628,156.347262 126.13427,156.347262 C127.050438,156.347262 127.790419,156.599424 128.28374,157.139769 C128.812298,157.680115 129.058959,158.544669 129.058959,159.805476 L129.058959,169.027378 C129.058959,169.459654 129.270382,169.675793 129.693229,169.675793 L132.864579,169.675793 C133.287425,169.675793 133.498848,169.459654 133.498848,169.027378 L133.498848,159.012968 C133.498848,157.644092 133.287425,156.455331 132.829341,155.482709 C132.371257,154.510086 131.736988,153.789625 130.856057,153.285303 C130.010364,152.78098 128.988485,152.564841 127.825656,152.564841 C126.099033,152.564841 124.689544,153.14121 123.561953,154.329971 C123.385767,154.510086 123.244818,154.582133 123.139106,154.582133 C123.068632,154.582133 122.998158,154.54611 122.96292,154.43804 C122.927683,154.365994 122.892446,154.221902 122.892446,154.07781 L122.892446,153.501441 C122.892446,153.285303 122.821971,153.14121 122.71626,153.033141 C122.610548,152.925072 122.434362,152.853026 122.258176,152.853026 L119.086826,152.853026 C118.875403,152.853026 118.699217,152.925072 118.593505,153.033141 M110.55942,153.033141 C110.453708,153.14121 110.383234,153.321326 110.383234,153.501441 L110.383234,168.991354 C110.383234,169.423631 110.594657,169.639769 111.017503,169.639769 L114.118379,169.639769 C114.541225,169.639769 114.752649,169.423631 114.752649,168.991354 L114.752649,153.501441 C114.752649,153.285303 114.682174,153.14121 114.576462,153.033141 C114.470751,152.925072 114.294565,152.853026 114.118379,152.853026 L111.017503,152.853026 C110.841317,152.853026 110.665131,152.925072 110.55942,153.033141 M110.383234,146.260807 C110.136573,146.657061 110.030861,147.089337 110.030861,147.557637 C110.030861,148.025937 110.136573,148.458213 110.383234,148.89049 C110.629894,149.286744 110.911792,149.610951 111.334638,149.827089 C111.722248,150.043228 112.145094,150.18732 112.638415,150.18732 C113.096499,150.18732 113.519346,150.079251 113.906955,149.827089 C114.294565,149.574928 114.6117,149.286744 114.823123,148.89049 C115.069784,148.494236 115.175495,148.06196 115.175495,147.59366 C115.175495,147.12536 115.069784,146.693084 114.823123,146.29683 C114.576462,145.900576 114.294565,145.576369 113.906955,145.360231 C113.519346,145.144092 113.096499,145 112.638415,145 C112.180332,145 111.757485,145.108069 111.334638,145.360231 C110.947029,145.576369 110.629894,145.864553 110.383234,146.260807 M95.0550438,167.262248 C94.9845693,167.40634 94.9140949,167.550432 94.9140949,167.658501 C94.9140949,167.838617 95.0198065,168.018732 95.2312298,168.162824 C96.1121603,168.70317 97.0988024,169.135447 98.2263934,169.495677 C99.3187471,169.819885 100.446338,170 101.609166,170 C102.842469,170 103.934823,169.783862 104.921465,169.387608 C105.908107,168.991354 106.648088,168.378963 107.176647,167.550432 C107.705205,166.757925 107.987103,165.74928 107.987103,164.560519 C107.987103,163.479827 107.775679,162.615274 107.317596,161.930836 C106.859512,161.246398 106.330953,160.742075 105.661446,160.345821 C104.991939,159.985591 104.181483,159.661383 103.265316,159.337176 L102.490097,159.085014 C101.82059,158.868876 101.292031,158.688761 100.939659,158.544669 C100.587287,158.400576 100.270152,158.220461 100.058729,158.004323 C99.8120682,157.788184 99.7063565,157.5 99.7063565,157.175793 C99.7063565,156.743516 99.8825426,156.419308 100.234915,156.167147 C100.587287,155.914986 101.045371,155.806916 101.644404,155.806916 C102.137725,155.806916 102.736757,155.914986 103.33579,156.095101 C103.97006,156.275216 104.569093,156.527378 105.132888,156.887608 C105.2386,156.959654 105.379549,156.995677 105.520497,156.995677 C105.731921,156.995677 105.87287,156.887608 106.013819,156.67147 L107.211884,154.798271 C107.317596,154.654179 107.352833,154.510086 107.352833,154.402017 C107.352833,154.221902 107.247121,154.041787 107.000461,153.933718 C106.225242,153.465418 105.379549,153.105187 104.463381,152.889049 C103.547213,152.636888 102.631046,152.528818 101.714878,152.528818 C100.587287,152.528818 99.5301704,152.708934 98.6140028,153.105187 C97.6625979,153.501441 96.9226163,154.07781 96.3588208,154.834294 C95.7950253,155.590778 95.5131276,156.563401 95.5131276,157.680115 C95.5131276,158.724784 95.7597881,159.553314 96.2178719,160.201729 C96.6759558,160.850144 97.2397513,161.318444 97.8740212,161.678674 C98.5082911,162.002882 99.3539843,162.363112 100.375864,162.68732 C100.516813,162.723343 100.692999,162.795389 100.869185,162.831412 C101.573929,163.04755 102.102487,163.263689 102.45486,163.407781 C102.807232,163.551873 103.124367,163.768012 103.33579,164.020173 C103.58245,164.272334 103.688162,164.560519 103.688162,164.956772 C103.688162,165.461095 103.511976,165.857349 103.124367,166.145533 C102.736757,166.433718 102.208199,166.541787 101.573929,166.541787 C100.904422,166.541787 100.16444,166.397695 99.3539843,166.10951 C98.5435283,165.821326 97.8035468,165.425072 97.1340396,164.992795 C96.9930907,164.884726 96.8521419,164.848703 96.7464302,164.848703 C96.5702441,164.848703 96.394058,164.956772 96.2883464,165.172911 L95.0550438,167.262248 Z M80.220175,161.246398 C80.220175,160.309798 80.4315983,159.481268 80.854445,158.760807 C81.2772916,158.040346 81.8410871,157.463977 82.5810686,157.0317 C83.3210502,156.635447 84.096269,156.419308 84.9771994,156.419308 C85.8581299,156.419308 86.6333487,156.635447 87.3733303,157.0317 C88.1133118,157.463977 88.6771073,158.040346 89.0999539,158.760807 C89.5228006,159.481268 89.7342239,160.309798 89.7342239,161.246398 C89.7342239,162.182997 89.5228006,162.975504 89.0999539,163.731988 C88.6771073,164.45245 88.1133118,165.028818 87.3733303,165.461095 C86.6333487,165.893372 85.8581299,166.073487 84.9771994,166.073487 C84.096269,166.073487 83.285813,165.857349 82.5810686,165.461095 C81.8763243,165.064841 81.2772916,164.488473 80.8896822,163.731988 C80.4315983,163.011527 80.220175,162.182997 80.220175,161.246398 M77.1545371,156.779539 C76.3793183,158.112392 75.9917089,159.589337 75.9917089,161.246398 C75.9917089,162.903458 76.3793183,164.416427 77.1545371,165.713256 C77.9297559,167.04611 79.0221096,168.090778 80.3963611,168.811239 C81.7706126,169.5317 83.285813,169.927954 84.9771994,169.927954 C86.6685859,169.927954 88.1837863,169.567723 89.5580378,168.811239 C90.9322893,168.054755 91.9894058,167.010086 92.7998618,165.713256 C93.5750806,164.380403 93.96269,162.903458 93.96269,161.246398 C93.96269,159.589337 93.5750806,158.112392 92.7998618,156.779539 C92.024643,155.446686 90.9322893,154.402017 89.5580378,153.681556 C88.1837863,152.925072 86.6685859,152.564841 84.9771994,152.564841 C83.285813,152.564841 81.7706126,152.925072 80.3963611,153.681556 C79.0221096,154.402017 77.9649931,155.446686 77.1545371,156.779539 M69.4023491,153.033141 C69.2966375,153.14121 69.2261631,153.321326 69.2261631,153.501441 L69.2261631,168.991354 C69.2261631,169.423631 69.4375864,169.639769 69.860433,169.639769 L72.9613082,169.639769 C73.3841548,169.639769 73.5955781,169.423631 73.5955781,168.991354 L73.5955781,153.501441 C73.5955781,153.285303 73.5251036,153.14121 73.419392,153.033141 C73.3136803,152.925072 73.1374942,152.853026 72.9613082,152.853026 L69.860433,152.853026 C69.6842469,152.853026 69.5080608,152.925072 69.4023491,153.033141 M62.3901428,161.210375 C62.3901428,162.182997 62.1787195,163.011527 61.7558729,163.768012 C61.3330263,164.524496 60.7692308,165.100865 60.0292492,165.497118 C59.2892676,165.929395 58.5140488,166.10951 57.6331184,166.10951 C56.7521879,166.10951 55.9417319,165.893372 55.2369876,165.497118 C54.5322432,165.064841 53.9684477,164.488473 53.5456011,163.768012 C53.1227545,163.011527 52.9113312,162.182997 52.9113312,161.210375 C52.9113312,160.273775 53.1227545,159.409222 53.5456011,158.652738 C53.9684477,157.896254 54.5322432,157.319885 55.2369876,156.923631 C55.9417319,156.527378 56.7521879,156.311239 57.6331184,156.311239 C58.5140488,156.311239 59.3245048,156.527378 60.0292492,156.923631 C60.7692308,157.319885 61.3330263,157.932277 61.7558729,158.652738 C62.1787195,159.409222 62.3901428,160.273775 62.3901428,161.210375 M65.7024413,165.713256 C66.4424228,164.380403 66.794795,162.867435 66.794795,161.210375 C66.794795,159.553314 66.4424228,158.076369 65.7024413,156.743516 C64.9624597,155.410663 64.0110548,154.365994 62.7777522,153.60951 C61.5796868,152.853026 60.2406725,152.456772 58.8311838,152.456772 C57.8797789,152.456772 56.9988485,152.600865 56.1883924,152.925072 C55.4131737,153.213256 54.7084293,153.645533 54.1093966,154.185879 C53.9332105,154.329971 53.7922616,154.402017 53.68655,154.402017 C53.4751267,154.402017 53.4046522,154.221902 53.4046522,153.861671 L53.4046522,145.936599 C53.4046522,145.720461 53.3341778,145.576369 53.2284661,145.4683 C53.1227545,145.360231 52.9465684,145.288184 52.7703823,145.288184 L49.6342699,145.288184 C49.2114233,145.288184 49,145.504323 49,145.936599 L49,168.991354 C49,169.423631 49.2114233,169.639769 49.6342699,169.639769 L52.8056195,169.639769 C53.2284661,169.639769 53.4398895,169.423631 53.4398895,168.991354 L53.4398895,168.451009 C53.4398895,168.162824 53.5103639,168.018732 53.68655,168.018732 C53.7922616,168.018732 53.9684477,168.090778 54.1446338,168.270893 C55.4131737,169.387608 56.9636112,169.963977 58.866421,169.963977 C60.2759097,169.963977 61.614924,169.567723 62.8129894,168.811239 C64.0110548,168.090778 64.9976969,167.04611 65.7024413,165.713256 M69.2261631,146.260807 C68.9795025,146.657061 68.8737909,147.089337 68.8737909,147.557637 C68.8737909,148.025937 68.9795025,148.458213 69.2261631,148.89049 C69.4728236,149.286744 69.7547213,149.610951 70.1775679,149.827089 C70.5651773,150.043228 70.988024,150.18732 71.481345,150.18732 C71.9394288,150.18732 72.3622754,150.079251 72.7498848,149.827089 C73.1374942,149.574928 73.4546292,149.286744 73.6660525,148.89049 C73.912713,148.494236 74.0184247,148.06196 74.0184247,147.59366 C74.0184247,147.12536 73.912713,146.693084 73.6660525,146.29683 C73.419392,145.900576 73.1374942,145.576369 72.7498848,145.360231 C72.3622754,145.144092 71.9394288,145 71.481345,145 C71.0232612,145 70.6004146,145.108069 70.1775679,145.360231 C69.7899585,145.576369 69.4728236,145.864553 69.2261631,146.260807 M202,168.991354 L202,158.112392 C202,156.959654 201.788577,155.951009 201.330493,155.122478 C200.872409,154.293948 200.238139,153.645533 199.392446,153.213256 C198.546753,152.78098 197.595348,152.564841 196.467757,152.564841 C195.551589,152.564841 194.705896,152.744957 193.930677,153.105187 C193.155458,153.465418 192.521188,154.005764 191.922156,154.654179 C191.781207,154.834294 191.675495,154.90634 191.534546,154.90634 C191.393597,154.90634 191.252649,154.798271 191.146937,154.618156 C190.72409,153.933718 190.125058,153.393372 189.385076,153.069164 C188.645094,152.744957 187.799401,152.564841 186.847996,152.564841 C186.03754,152.564841 185.297559,152.708934 184.592814,153.033141 C183.923307,153.357349 183.324275,153.789625 182.795716,154.365994 C182.61953,154.54611 182.478581,154.618156 182.37287,154.618156 C182.196684,154.618156 182.126209,154.43804 182.126209,154.113833 L182.126209,153.501441 C182.126209,153.285303 182.055735,153.14121 181.950023,153.033141 C181.844311,152.925072 181.668125,152.853026 181.491939,152.853026 L178.355827,152.853026 C178.144404,152.853026 178.003455,152.925072 177.897743,153.033141 C177.792031,153.14121 177.721557,153.321326 177.721557,153.501441 L177.721557,168.991354 C177.721557,169.423631 177.93298,169.639769 178.355827,169.639769 L181.491939,169.639769 C181.703363,169.639769 181.844311,169.567723 181.950023,169.459654 C182.055735,169.351585 182.126209,169.17147 182.126209,168.991354 L182.126209,159.553314 C182.126209,158.544669 182.37287,157.752161 182.866191,157.175793 C183.359512,156.599424 184.064256,156.275216 184.945187,156.275216 C185.755643,156.275216 186.389912,156.527378 186.883234,157.067723 C187.376555,157.608069 187.623215,158.364553 187.623215,159.337176 L187.623215,168.991354 C187.623215,169.423631 187.834638,169.639769 188.257485,169.639769 L191.428835,169.639769 C191.851681,169.639769 192.063105,169.423631 192.063105,168.991354 L192.063105,159.553314 C192.063105,158.544669 192.309765,157.752161 192.803086,157.175793 C193.296407,156.599424 194.001152,156.275216 194.882082,156.275216 C195.692538,156.275216 196.326808,156.527378 196.820129,157.067723 C197.31345,157.608069 197.560111,158.364553 197.560111,159.337176 L197.560111,168.991354 C197.560111,169.423631 197.771534,169.639769 198.19438,169.639769 L201.330493,169.639769 C201.541916,169.639769 201.682865,169.567723 201.788577,169.459654 C201.929526,169.387608 202,169.207493 202,168.991354 M80.8460308,33.0515808 L80.8460308,33.0515808 C80.5267722,32.8407879 80.4912991,32.5245986 80.6686649,32.1732771 L82.3359039,29.3627056 C82.5487429,28.976252 82.8680014,28.9059877 83.2582063,29.1167806 C83.2582063,29.1167806 99.8241765,38.8483846 101.278576,39.7266882 C113.907025,47.1044386 119.263473,48.3691958 126.5,48.3691958 C133.701053,48.3691958 138.70277,47.209835 151.153853,39.9726132 C152.821092,39.0240453 169.706321,29.222177 169.706321,29.222177 C170.096525,29.0113841 170.415784,29.0816484 170.628623,29.468102 L172.295862,32.2786736 C172.508701,32.6651272 172.437755,32.9813165 172.04755,33.1921093 C172.04755,33.1921093 155.197794,42.9237134 153.495082,43.9074134 C141.292312,50.9689745 135.510185,52.9012425 126.5,52.9012425 C118.518537,52.9012425 112.381679,51.5310888 98.9018741,43.6263563 C97.3765278,42.7480527 80.8460308,33.0515808 80.8460308,33.0515808 C80.8460308,33.0515808 80.8460308,33.0515808 80.8105576,33.0515808 C80.8460308,33.0515808 80.8460308,33.0515808 80.8460308,33.0515808 M109.721191,81.2528832 C113.694186,88.1036514 115.574264,94.076116 115.396898,109.53426 C115.396898,111.290867 115.184059,130.297357 115.184059,130.297357 C115.184059,130.297357 115.184059,130.297357 115.184059,130.332489 C115.184059,130.367621 115.184059,130.402754 115.184059,130.402754 L115.184059,130.402754 C115.148586,130.789207 114.935747,130.964868 114.510069,130.964868 L111.211064,130.929736 C110.749913,130.929736 110.537074,130.683811 110.537074,130.262225 C110.537074,130.262225 110.749913,111.18547 110.785386,109.499127 C110.927279,94.9895517 109.330986,89.7548622 105.712723,83.5364726 C102.129933,77.3532151 98.5826155,73.66434 86.0605867,66.5676467 C84.3933477,65.6190788 67.3662263,56.0280033 67.3662263,56.0280033 C66.9760215,55.8172105 66.9050751,55.5010212 67.1179141,55.1145676 L68.7496799,52.2688639 C68.962519,51.8824103 69.2817775,51.812146 69.6719823,52.0229389 C69.6719823,52.0229389 86.5926842,61.6140143 88.3308695,62.5977144 C100.640059,69.553879 105.216098,73.5589435 109.721191,81.2528832 M185.882086,55.1496997 C186.094925,55.5361533 186.023979,55.8523426 185.633774,56.0631355 C185.633774,56.0631355 168.606652,65.654211 166.939413,66.6027789 C154.417384,73.66434 150.870067,77.3883473 147.287277,83.5716047 C143.669014,89.7899943 142.072721,95.0246839 142.214614,109.53426 C142.250087,111.220603 142.462926,130.297357 142.462926,130.297357 C142.462926,130.754075 142.250087,130.964868 141.788936,130.964868 L138.489931,131 C138.064253,131 137.851414,130.824339 137.815941,130.437886 L137.815941,130.437886 C137.815941,130.437886 137.815941,130.402754 137.815941,130.367621 C137.815941,130.367621 137.815941,130.367621 137.815941,130.332489 C137.815941,130.332489 137.638575,111.325999 137.603102,109.569392 C137.461209,94.076116 139.305814,88.1036514 143.278809,81.2880153 C147.783902,73.5940757 152.359941,69.5890112 164.633657,62.6328465 C166.371843,61.6491465 183.292544,52.058071 183.292544,52.058071 C183.682749,51.8472781 184.002008,51.9175424 184.214847,52.303996 L185.882086,55.1496997 Z" transform="translate(-49 -29)"/></svg>