<svg xmlns="http://www.w3.org/2000/svg" width="16" height="16" viewBox="0 0 16 16"><path d="M1.86165119,1.55080314 L1.86165119,1.55080314 C1.81872568,1.52214633 1.81395618,1.47916111 1.83780369,1.43139977 L2.06197027,1.04930899 C2.09058728,0.99677151 2.1335128,0.987219241 2.18597732,1.01587605 C2.18597732,1.01587605 4.41333465,2.33886536 4.60888423,2.45826873 C6.30682686,3.46125701 7.02702163,3.63319786 8,3.63319786 C8.96820886,3.63319786 9.64070862,3.47558542 11.3148037,2.49170167 C11.5389703,2.36274603 13.8092532,1.03020445 13.8092532,1.03020445 C13.8617177,1.00154765 13.9046432,1.01109991 13.9332602,1.0636374 L14.1574268,1.44572817 C14.1860438,1.49826565 14.1765048,1.54125087 14.1240403,1.56990767 C14.1240403,1.56990767 11.8585269,2.89289698 11.6295909,3.02662876 C9.98888225,3.98663183 9.21145346,4.24931924 8,4.24931924 C6.9268621,4.24931924 6.10173829,4.06304999 4.28932761,2.98841968 C4.08423903,2.86901631 1.86165119,1.55080314 1.86165119,1.55080314 C1.86165119,1.55080314 1.86165119,1.55080314 1.85688169,1.55080314 C1.86165119,1.55080314 1.86165119,1.55080314 1.86165119,1.55080314 M5.74402565,8.10365994 C6.27820985,9.0350062 6.53099345,9.8469491 6.50714594,11.9484484 C6.50714594,12.1872551 6.47852893,14.771144 6.47852893,14.771144 C6.47852893,14.771144 6.47852893,14.771144 6.47852893,14.7759201 C6.47852893,14.7806962 6.47852893,14.7854724 6.47852893,14.7854724 L6.47852893,14.7854724 C6.47375943,14.8380099 6.44514242,14.8618905 6.38790839,14.8618905 L5.94434473,14.8571144 C5.8823412,14.8571144 5.85372419,14.8236815 5.85372419,14.7663678 C5.85372419,14.7663678 5.8823412,12.1729267 5.88711071,11.9436722 C5.90618871,9.9711286 5.69156113,9.25948453 5.20507195,8.41410869 C4.72335227,7.57350899 4.24640209,7.07201484 2.56276796,6.10723563 C2.33860137,5.97828 0.0492405137,4.67439523 0.0492405137,4.67439523 C-0.00322400603,4.64573842 -0.0127630096,4.60275321 0.0158540011,4.55021572 L0.235251084,4.16334881 C0.263868094,4.11081133 0.30679361,4.10125906 0.35925813,4.12991587 C0.35925813,4.12991587 2.63431048,5.43380064 2.86801607,5.56753241 C4.52303319,6.51320708 5.13829893,7.05768644 5.74402565,8.10365994 M15.984146,4.55499186 C16.012763,4.60752934 16.003224,4.65051455 15.9507595,4.67917136 C15.9507595,4.67917136 13.6613986,5.98305613 13.437232,6.11201177 C11.7535979,7.07201484 11.2766477,7.57828512 10.794928,8.41888483 C10.3084389,9.26426067 10.0938113,9.97590474 10.1128893,11.9484484 C10.1176588,12.1777028 10.1462758,14.771144 10.1462758,14.771144 C10.1462758,14.8332337 10.1176588,14.8618905 10.0556553,14.8618905 L9.61209161,14.8666667 C9.55485758,14.8666667 9.52624057,14.842786 9.52147107,14.7902485 L9.52147107,14.7902485 C9.52147107,14.7902485 9.52147107,14.7854724 9.52147107,14.7806962 C9.52147107,14.7806962 9.52147107,14.7806962 9.52147107,14.7759201 C9.52147107,14.7759201 9.49762356,12.1920312 9.49285406,11.9532245 C9.47377605,9.8469491 9.72179015,9.0350062 10.2559743,8.10843607 C10.8617011,7.06246257 11.4769668,6.51798322 13.1272144,5.57230855 C13.36092,5.43857678 15.6359724,4.13469201 15.6359724,4.13469201 C15.6884369,4.1060352 15.7313624,4.11558747 15.7599794,4.16812495 L15.984146,4.55499186 Z"/></svg>