<svg xmlns="http://www.w3.org/2000/svg" viewBox="0 0 31.52 202.37"><path d="m28.39 57.18 1.13.13c.29-.21.21-1 .41-1.33.34-.54 1.18.14 1.16-1.82 0-.96-.1-2.41-1.36-2.12.26-.56.32-1.3.24-1.91-.07-.49-.42-.79-.44-1.09-.06-1.11.74-3.3-1.03-3.68l-3.02-3.26c-1.37.13-.58.04-1.1-.66-.78-1.07-1.84-1.05-2.02.34l-.44-.22c-.03.32-.2.49-.07.83.24.6.78.52.96.96-1.35.24-2.67.09-4.02-.11.01-.39.56-.72.66-1.35.55-3.54.68-1.1.91-4.64.59-9.03-.72-10.19.91-19.02.21-1.13.85-2.32.83-3.52.71.31.04 1.47 0 2.12-.46 7.6-.43 8.68-.86 16.26-.23 4.02-.06-.12-.22 3.91-.04.96-.76 5.92-.23 6.35 1.33.06.64-.59.67-1.23.8-18.12.38-20.89 4.3-38.52.07-.33.44-.65.52-1.05.05-.27.1-2.89-.39-2.52-.54 2.1-1.32 4.12-1.95 6.2-1.41 4.68-2.78 7.77-3.58 12.64-1.74 10.6-.41 6.52-1.36 17.2-.07.84-.2 1.97-.34 2.79-.13.79-.66 1.51-.33 2.23-1.09-.07-2.02-1.36-2.85-.06-.29.45-.5 1.3-.5 1.85-.77-.43-1.59.08-2.42.04-.39 1.27-1.41 2.16-1.83 3.41-.64 1.88-.37 4.38-1.03 6.12-.24.62-.57.58-.74.88-.83 1.51-.22 3.34 0 4.95.89-.02.87-1.18.76-1.8l.78-.23-.65-1.99.87-.36.75-5.72c.75-.79.62-1.75.88-2.48.12-.33.87-.34.63-1.03.72.1 2.4.42 3.01.18.15-.06.99-1.46 1.67-1.3-.17 1.59 1.16 1.24 2.24.99-.06.67.87 1.32.89 1.4.09.38-.21 1.22.36 1.39 1.1.32 2-1.43 3.21-1.77-.38 1.05.09 1.35.43 2.36l2.03-.13c.23-.66-.82-1.06-.87-1.15-.12-.23.48-.89-.02-1.2-.41-.27-1.13 0-1.57.12.59-1.61 2.98-.37 3.55.82.25.53.09 1.35.47 1.96-.33 1.23.05 2.54.12 3.57.03.5-.49 1.21-.33 1.76l.53.37 1.12-.45c.44.69-.43.73-.83 1.41-.33.56-.46 1.07-.4 1.72h-.89l-.26-2.19-2.66-.16c-.57.41-.24 3.76-.43 4.59l-.42-.19-.25.41c-.08-.65.2-1.25.23-1.89.02-.32.18-.9-.34-.79l-.34 1.34c-1.68-1.51-3.42.76-2.87 2.31.32.9 4.3-.18 4.21 1.7-.91.26-3.87-.9-3.32.76.19.59 1.4.11 1.55.23l.23.78c1.24-.32 2.11.84 3.32.25l-.22 2.45c.92.04.58-.99.77-1.57.32-.97.84-1.82.9-2.89l.33-.22c.21.27-1.02 3.13.91 1.86-.25-.63.21-1.6.21-1.97v-3.24l-.89.89v-2.01ZM26.11 93.03c-.06-.18-.66-3.38-.64-3.56.02-.11 1.45-.98-.43-1.26-.02-.49.99-.09 1.12-.22.04-.04.05-1.01 0-1.18-.05-.19-1.09-.53-.67-1.49.93.31 1.23 1.59 2.45 1.34.27-1.68-.24-1.1-.83-1.62-.24-.21-.31-.76-.58-.98-.16-.14-.57-.1-.73-.28-.26-.31.56-1.52-.47-1.78-.45-.11-2.74 1.14-2.27 2.06l1.12.75c.37.55-.43 1.31-.22 1.94.03.1 1.15 1.08 1.09 1.7-1.66.06-1.16-.71-1.9-1.56-1.62 1.09-.07 2.72 1.45 2.68-.57 1.3.44 2.83-1.12 3.42-.48.18-1.38-.1-1.75.7l1.08 1.8 1.34-.35-.22 2.23c-.49-.03-.33-.85-.57-.91-1.09-.27-3.04.82-2.29 2.3.6 1.17 1.27.19 2.03.38.1.03.52.81 1.06.82l-.05 1.17-.86.37.11.56.78-.11c-.56 1.02-.75 1.37-.45 2.56h-.67c.36 1.28 1.18 1.66.22 3.13l-1.22-.91c-.77-.08-.66.55-.81.64-.09.05-.64-.35-.86.17.18 1.8 1.47 1.64 2.9 1.67-.3.87-.38 1.87-.43 2.78-.16 2.9-.09 6.04-.39 8.74-.04.38.26.86.17 1.27-.06.26-.82.23-.92.95-.09.64.36.88.45 1.34.09.49-.1 1.11 0 1.52.04.15 1.13.26 0 .74l-.66 8.78c-.59.15-.67-.66-.9-1.02 1.36-1.32.21-2.08-.12-3.22-.11-.38.23-1.63-.24-1.79l-2.08-.22c-.33 1.23.86 1.64.89 2.68-.89-.34-.79-.99-1.97-1.07-.71-.05-.7.24-1.11.35-.39.1-.85-.4-.95.39-.12.98.66 1.42 1.13 2.12-.24.19-2.78-1.35-1.79.79.67.09 1.15.9 1.57 1.1.61.3 1.7.07 2.07.32.32.21.22.68.42.87.21.19.63.15.9.29.17.09.17.39.33.43.66.16 1.12-.06 1.63-.44.22.31-.91 4.17.56 3.96 1.01-.14.33-1.97.33-2.51 0-.63.35-1.34.38-2.02.17-3.39.25-6.82.28-10.22 1.41-.53.11-2.85.28-3.61.03-.14.43-.13.54-.54.26-1.01.54-2.91.35-3.95-.35-1.95-.17-1.26-.04-3.11.1-1.44-.04-3.11.12-4.6.21-1.91 1.02-3.85.79-5.86.23-.64 1.17.04 1.21-.92 0-.18-.15-.37-.12-.56l-.89.22c.28-1.18-.08-3.2.49-4.3.18-.35.57-.4.71-.63.65-1.06 1.48-2.99.92-4.21-.21-.47-.87-.48-1.05-.99Z" style="fill:#edd8a4"></path><path d="m18.99 116.5-.87-.61.42-.96c-1.15-2-3.63-1.4-5.45-2.34-.23.04-.45.5-.47.73-.04.54.79.61.58.78-.32.26-1.1.18-.89 1.11 1.27.62 3.16-.73 4.02.67h-.89l.22 1.56c-.41.11-.53-.32-.84-.39-.27-.06-.54.1-.88 0-1.24-.36-1.73-1.29-2.86.17l-1.57-1.11c-.2.06-.15.61-.1.77.19.75 3.33 3.94 4.54 3.48l.71-1.8c1.81 1.16 4.03-.05 4.32-2.08ZM3.43 138.07c.1.23.54.57.75.55.9-.09.24-1 .21-1.17-.19-1.55-.33-.83-.55-1.4-.13-.35-.1-1.18-.23-1.61h.9l-.23-3.79.88-.36c-.43-.86.09-1.24.19-1.81 1.07-6.55.46-13.56.71-20.28.02-.43.16-.81.23-1.22H5.5c-.1.6-.33 1.28-.34 1.89-.08 3.81.15 7.75.02 11.62-.05 1.56-.05 5.24-1.02 6.35-.22.25-.67.11-.78.38-.08.18-.66 2.94-.65 3.1l.9 1.1c.12.98-.7 1.96-.87 2.73-.29 1.37.47 2.59.66 3.93ZM11.22 93.16l-.15.65-2.1.21c-.24 1.96 2.43.99 3.57.89.02 1.74-1.77.75-1.56 2.45-2.85-2.65-2.68.05-.46 1.45l-.56 1.24c.93 1.18 5.93-.33 3.5-1.22-.69-.25-1.6.26-1.59-1.03l2.69.12.19-1-.87-.58c.24-.62 1.04-.44 1.29-.61.14-.1.29-.76.28-.97-.04-1.21-.89-.8-1.56-1.12-1.03-.49-1.06-1.05-2.67-.51ZM6.73 101.61c.24-.29.32-3.47-.22-3.91-.04-.12.34-.08.38-.16.46-.78-.19-2.56.12-3.58.22-.7 1.16-1.42 1.22-1.87.04-.3-.21-.7-.17-1.07.36-3.9.46-8.15.48-12.06 0-.82-.55-2.53-1.13-1.12-.5 3.82.03 7.84-.23 11.6-.15 2.22-1.19 3.61-1.34 5.58-.16 1.99.21 4.04-.19 6.02l1.08.57ZM15.82 138.62c.15-.28.13-.78-.15-.97l-2.11-.31c-.53.14.12 1.26-.58 1.68l-2.1-.32-.32.34-.04.97c-2.36-.51-1.46 1.23.35 1.55 1.72.3 1.17-.61 1.65-.99.11-.09.69.12.99-.09.14-.1.58-1.51 1.26-1.36.06.07-.26.36-.12.66.06.13 1.69 2.17 1.83 2.21 1.11.37.71-.87 1.39-.98l1.57.33c.68-1.85-.15-1.31-1.29-1.7-.87-.3-1.64-.87-2.71-.52-.21-.54.34-.41.38-.49ZM6.78 71.14c.01.78.54 1.28.62 1.8.1.67-.28 1.75 0 2.54 2.07.35 1.04-1.22 1.1-2.1.02-.26 1.24-.18.36-1.26-.31-.38-1.24-.66-1.25-.78.01-.81.79-1.57.9-2.23.25-1.64-.41-3.11.53-4.93.15-.29 1.73-1.28.15-1.2.02-1.1.77-2.03-.67-2.45.28.73-.67 1.4-.68 1.49-.07.5.47 1.06.41 1.71-.05.57-.58.57-.62.76-.19.86.07 1.85 0 2.62-.12 1.25-.87 3.06-.85 4.03ZM28.61 64.55c-1.47.49-.96 3.28-1.12 4.57-.25 2-.44 3.49-.57 5.51-.05.71-.89 3.52.24 3.76.93.2.58-1.54.61-1.83.35-2.9.46-5.67.58-8.54.05-1.15.33-2.3.24-3.46ZM17.68 48.14c-.1.06-1.45 1.64-1.24 1.91.73.45 2.9 2.2 3.69 1.67.14-.09.15-.44.27-.51.42-.25 1.79.24 1.13-1.11-.57-1.15-1.84-.09-2.74-.06l1.07-1c.06-.69-1.67-1.23-2.19-.9ZM16.11 175.28c.3-.86 1.5-1.81.55-2.68-1.26.84-2.35.58-2.77 2.35 1.23.39.07 1.17.74 1.68.45.34.91.26 1.38 0 .23 1.02 1.51-.03 1.45-.8-.05-.71-.82-.57-1.36-.57ZM20.95 113.48c.46-.13.97.06 1.42-.14l.18-.99c-.88-.87-4.79-.64-4.45.94.03.16 1.75.99 1.91.98.26-.02.53-.67.93-.78ZM18.08 101.06c-.57.06-1.05.43-1.45.48-.34.04-1.59-.56-1.2.4.31.74 1.24-.33 1.33.67l.35.13c.65.07.84-.65 1.34-.7.58-.05 1.69.76 2.56.23 0-.32-.05-.83-.28-1.06-.24-.24-2.2-.2-2.66-.16ZM30 88.93c-.49.54-1.01 3.43.47 3.25 1.99-.32.74-4.6-.47-3.25ZM6.65 164.98c.09.02 1.65-.38 1.72-.43.21-.14 1.04-1.22 1.05-1.44.12-1.09-2.74-.22-2.87-.07-.18.21-.64 1.8.11 1.94ZM19.2 54.54c-.36-.17-.9-.46-1.19-.04l-.54 2.89c2.25.5 2.31-1.19 1.74-2.85ZM16.65 59.86c-.24 2.17 3.71 1.65 2.93 0-.48-.57-1-.74-1.74-.63-.33.05-1.04.33-1.19.62ZM27.38 87.98c-1.1 0-.19 2.27-.56 2.91.51-.31.91.31 1.4.2 1.31-.29.21-2.91-.85-3.11ZM2.27 148.63c.06-.83 1.14-1.92-.34-2.37-.37.08-.57 2.53-.57 3.01 0 .72.02 1.58.57 2.12.88-.84.28-1.93.34-2.76ZM19.24 102.95c-.2.8.27.46.44.89-.42.11-1.11-.1-1.11.56 0 .65 1.28-.04 1.5-.07.39-.05.83.3 1.18.08.93-.59-.28-.9 0-1.69-.81.4-1.11.4-2.01.22ZM13.65 177.51v2.23h1.79c.23-.35-.56-2.11-.71-2.2-.24-.14-.77 0-1.08-.04Z" style="fill:#edd8a4"></path><path d="m22.02 142.25-.67.21c-.31.45.05 1.52-.14 2.09-.13.37-.71.4-.84.72-.2.46.79.84.78 1.77 0 .1-.32 1.43-.36 1.5-.13.27-.53.26-.63.54-.18.5.04 1.31-.04 1.87-1.81-2.25-3.95 1.2-2.56 2.9l.89-.66c1.62.77 1.79 3.35.44 4.45l-1.77-3.13c-.77-.5-1.45-.33-2.23.02l-.8-.79c0-.6.95-.24 1.5-.5.31-.14.58-.33.5-.72-2.49.41-1.3-.12-1.61-.84-.04-.1-.84-.68-1.07-.5.04-.46.36-.93.2-1.41-.03-.08-1.02-1.11-1.09-1.15-.17-.1-2.56-.4-2.67-.33v1.1c-2.59-.64-2.56.61-1.44 2.47 2.06-.07 3.4 1.03 5.44-.01v1.34l-.65.01c-.26 1.04.58 1.69 1.1 2.44l-1.77-.2c0 .79-.85 1.58-.14 2.22.24.81-1.71.08-1.84-.06-.27-.27-.08-1.54-.64-1.72-.42-.14-.92.26-1.28.22-.07 0-.38-.84-1.26-.46.18.63.3 1.77.48 2.31.15.44 1.06.17.4 1.1-.1.14-.42.15-.45.31-.12.7.32 1.55 1.12 1.31.59-.43.66-1.61 1.46-1.69.74-.07 2.91.97 3.9.9l-.26.85c-2.27-.58-1.93 1.12-2.41 1.51-.16.12-1.31-.51-1.56.23-.58 1.73 2 .76 2.52.82.56.07 1.11 1.02 1.92.83-.2.66-1.21.14-1.13.88l-1.55-.44.22 2.01c-1.57-.02-.46 1.03-.44 1.45 0 .05-.71.25-.46.78-.3.38-.31.2-.36-.23-.14-1.2-.47-1.72-.8-2.84-.1-.14-1.09-.35-1.34-.36-.31-.01-2.38.29-2.69.36-.15.04-.89.51-.95.61-.32.51.74.75.57 1.68-.7.13-.83.26-.9 1.01-1.29-.29-.66-1.46-1.23-2.23-.39-.08-1.57 1.25-1.47-.56.11-1.87 1.29.08 1.73.07.71-.11 1.15-.98.3-1.18 3.48-4.8-.44-2.41-.65-2.58-.04-.03-.07-.48-.33-.68-.28-.21-1.67-.48-1.71-.79.57-.82.3-1.7.46-2.4.04-.17.45-.14.45-.28 0-.25-.27-.64-.24-1.09.03-.46.56-2.7.46-2.8l-1.02.21c-.2.3-.33 2.96-.56 3.64-.21.63-.32.32-.55 1.62-.07.41-.43.65-.36 1.35.06.52.6.4.64.65.07.37-.54 1.36-.61 1.8.66 1.16.7 3.65 1.54 4.65.2.24.92.31 1.3.54 1.19.73.7 1.22 1.06 2.06.25.58 2.31 2.13 3.01 1.34.03 1.81.08 3.66.01 5.48-.13 3.54-.66 7.21-.8 10.68-.13 3.1.58 6.47.58 9.61l.96 1.92v.06l1.04-.12c.09-.37-.57-2.05-.66-2.13-.1-.08-.26-.03-.41 0-.17-5.9-.39-11.91.19-17.58.03-.25.25-1.68.33-1.68l.96 1.78c-.49 1.18-1.19 3.53-1.13 5.9.04 1.51.15 2.88.26 5.22.19 4.2.89 5.84.89 5.84s-.25-11.36.26-16.43l.85 1.58c-.1 2.23-.53 4.5-.65 6.72-.26 4.94.75 7.59.8 12.45l.26.38.62.3c.3-10.06-.8-15.52.3-26.11.1-.92-.12-1.86.13-2.77 1.2-.85 2.75-.83 3.99-1.59.27-.17 2.36-1.8 2.5-1.96.46-.55.85-1.96 1.11-2.71.57-1.62.94-2.7.86-4.34-.03-.57.64-1.91.61-2.45-.03-.64-.42-.75-.69-1.23.16.02.37.02.44-.16.19-.57.41-2.6.46-3.31.12-1.46-.16-3.97-.02-5.31.01-.13.37-.12.49-.45.16-.42.5-2.4.6-2.99.09-.58-.61-1.17-.41-1.84 1.1.55 1.06-2.66.32-2.9ZM14.91 56.04c-.3-.05-.64-.89-1.26-.65l.02 1.09c.49.05 3.56.79 3.33-.31-.18-.87-1.98-.12-2.09-.14ZM26.38 82.63c.73.54 1.47-2.66 1.09-2.88l-.9.11c-.27.96-.63 1.79-.2 2.77ZM15.22 124.49c.27-1.13-2.28.02-2.68-.11-.62 1.96 2.58.53 2.68.11ZM15.98 94.7l1.7.11.18-1.22c-.91-.41-2.41-.12-1.89 1.11ZM19.94 84.9l-.21.58c-.31.91 1.67 1.1 1.95.71.56-.8-1.01-1.63-1.73-1.29ZM14 48.48c-1.22.31.87 2.33 1.66 1.22.28-.63-1.38-1.3-1.66-1.22Z" style="fill:#edd8a4"></path><path d="m5.4 156.97-.19.75c.66.96 2.32.47 2.2-.75-.98.33-1.03.32-2.01 0Z" style="fill:#edd8a4"></path></svg>