<?xml version="1.0" encoding="UTF-8"?><svg id="b" xmlns="http://www.w3.org/2000/svg" viewBox="0 0 94.43 283.46"><defs><style>.d{fill:#748f2a;}</style></defs><g id="c"><path class="d" d="M71.24,187.47c2.38,3.5,4.63,7.06,7.71,10.33l2.84,1.61-11.99-18.21-.06.02c-2.08-8.63-3.65-15.09-4.34-17.74.42-2.84,2.85-2.92,4.13-5.75-2.46,1.6-5.09,3-7.43,4.78l-.98-.99-1.65.51c1.59-2.23,5.77-2.22,7.8-4.29.79-.81,1.12-3.11,2.51-3.85,1.61-.67-.06,3.41-.25,3.83.23-.15.93-.06,1.22-.44,2.37-5.44,3.42-12.01,3.11-18.03-.98-19.13-8.62-29.23-15.83-45.75.11.04-.46,1.41-.28,2.38.15.78,3.14,7.02,3.76,8.27,6.36,12.97,10.98,20.64,11.38,36.09.05,1.94-.63,3.58-.48,5.49-.86,1.06-5.66-6.3-3.83-7.67l1.91.48c.49-.49-1.58-3.21-2.39-3.36l.95,2.4c-4.02-.73-2.18,2.07-1.04,4.15.95,1.73,2.67,2.89,2.5,4.93l1.9.03-.23,2.88c-1.57,2.26-4.66-4.17-5.26-5.31-.74-1.41-.94-1.92-1.82-3.44-.81-1.38-.72-5.39-2.27-4.44,2.64,4.1,2.21,12.43-2.33,4.7l1.85-1.82c-.68-.63-1.94.83-2.34-.54l.41-4.01c-.46-.48-6.01,4.28-6.46,4.3-1.85.1,1.03-2.17.47-2.39l-5.02,2.4c-.29-1.24.36-.84.9-1.23,1-.74,2.1-1.47,3.16-2.13.93-.58,3.92-1.77,4.07-1.93.12-.12-.76-1.84.97-2.85-1.44-.27-1.49,1.52-2.29,1.9-1.26.58-3.55.18-4.89.97-.55-.55,3.52-3.86,1.22-3.33-2.02.46-3.81,2.78-6.02,2.85l8.14-6.47-5.74,2.16c.26.14,1.76-.21.73.97-.09.1-.92.65-1.91,1.3-.97-.97-2.44-1.21-4.15-1.15.46-.24.91-.45,1.36-.54,1.44-.29,2.37-.16,3.97-.59-1.4-.75.7-2.21.48-2.39l-5.5,1.91-.24-.95c3.56-1.99,6.83-3.54,9.58-6.71-4.53-.6-7.51,3.81-11.75,2.89-.67-.14-1.4.4-1.19-.73l8.62-4.56-2.87-.23c.76-1.37,3.01-1.58,3.83-2.42.45-.45.35-1.21.61-1.52.49-.58,2.06-.45,2.26-1.57-2.75-1.05-2.76,1.23-4.29,2.65-2.29,2.11-5.44,3.86-8.64,2.86l3.35-1.93-2.64-.23c4.36-1.75,7.03-4.92,10.31-8.14-2.04.69-3.8,2.74-5.8,3.55-.67.27-5.56,1.62-6.05,1.62-.57,0-1.01-.28-1.09-.85l7.66-3.85-.95-.71,3.35-3.11-6.23,3.34.96-1.43c-.48-.37-4.35,3.12-5.27,2.39-.92-.73.68-1.03.95-1.19,1.23-.74,5.04-2.48,5.75-3.13.56-.51-1.54-.31-.95-1.19l3.82-3.59-6.46,3.84-.24-1.93c-.54-.37-4.95,2.48-4.78.72.06-.65,9.74-5.93,10.53-7.67-.73-.25-4.98.64-5.18.81-.39.34-.97,4.15-3.92,3.74,1.14-3.07,2.92-4.38,5.27-6.47l-.95-.95,3.35-3.12-7.91,5.74-.48-1.43c-2.48,1.84-6.61,4.52-9.83,3.34-.24-1.08,1.64-1.8,2.37-2.17,4.97-2.56,5.56-1.96,9.83-5.98.56-.53,4.34-3,3.6-3.82-3.11,1.89-7.44,6.65-11.25,6.24-.67-.07-1.37-.29-.73-.97,3.11-.3,3.15-3.14,5.75-4.56l-1.91.72c.5-2.43,3.36-3.48,5.74-3.36l-.48-1.91c-2.99-.42-1.9.27-2.66,1.38-1.04,1.52-3.93.81-5.62,1.12-1.14.21-2.15,1.04-3.09,1.22-1.25.23-6.77,1.13-7.32-.13,2.55-1.86,6.13-2.48,8.74-3.71,3.58-1.69,5.45-4.48,8.51-6.83-.42-.75-1.08.15-1.49.42-3.88,2.56-6.76,5.25-11.93,3.89,2.78-2.16,5.55-3.41,9.11-3.6-.67-1.16-1.85-1.36-.96-2.87-.92-.71-4.03,2.9-5.61,3.25-1.54.34-3.35-.02-4.93.1-1.07-.93,6.08-3.39,6.74-4.04,1.23-1.22,1.59-3.75,2.53-4.9.95-1.15,3.34-1.69,4.15-3.03l-2.88.96c.23-1.54-.71-3.25-2.4-3.36,1.16,3.37.95,5.91-2.65,7.18l-.23-1.44c-1.34,1.12-5.29,1.19-3.11-.95.19-.18,4.22-2.3,2.4-2.4-1.66.89-3.4,2.41-4.95,3.31-1.17.67-2.45-.15-2.01,1.96.15.17,3.93-1.37,4.31,0-3.37,1.45-5.93,1.83-9.58.97l1.91,1.91-2.4,1.44c2.45,0,5.42-2.04,7.83-1.43.37.1.31.95.6.97.63.03,1.72-.78,2.6-.49-2.67,2.72-6.99,3.12-10.54,1.92l1.91,1.91c-4.1.29-3.73-3.74-4.59-6.73,2.23-.87,4.56-1.66,6.99-1.42-.56-3.26,4.8-3.47,6.71-5.51-1.53.33-2.06-1.2-2.19-1.21-.63-.04-1.73.78-2.61.48l.49-.95c-2.13.07-3.42,1.57-5.64.59-.67-.29-.73-.11-.59-1.07,2.1-1.91,5.9-.59,7.54-1.28.76-.32.9-1.36,1.53-1.86,2.08-1.66,4.8-2.67,6.26-5.01-2.32-.52-2.38,1.31-3.67,2.32-2.04,1.6-4.07,2.5-6.18,3.89l-.93-.96c-2.16,1.36-3.64.84-5.99.5,1.35-2.63,6.3-1.93,7.81-2.86.52-.32.34-1.22.83-1.66,1.06-.98,2.92-1.5,3.82-2.91l-4.9,1.81c-2.78,2.7-4.57,2.51-8.03,1.07l8.15-4.33c.51-2.72,3.64-3.54,5.26-5.49h-1.91s.96-1.92.96-1.92c-1.1.14-1.29-.04-1.67-.96-1.49.85-9.29,6.78-10.31,5.74-.1-.1-.16-1.11.3-1.47,1.47-1.16,4.67-2.29,6.4-3.33l-1.92-.72,1.92-2.63c-2-.31-4.2,3.77-5.27,1.44l3.35-1.92c-1.83,0-3.29,1.66-5.04,1.91-.93.13-.75-.18-.7-.95l7.03-3.8c1.23-.23,1.35,2.07,1.66,2.29,2.69,1.95.22-3.91-.84-4.23-2.15.34-2.65,2.71-5.45,1.88l1.44-1.91-4.79.72c4.82-2.61,7.47-3.66,12.84-1.82,14.86,5.08,20.88,35.16,26.46,48.31.81,1.93,2.52,3.86,2.88,4.54-5.99-15.08-11.83-43.96-25.72-52.64-2.82-1.77-6.78-1.91-9.79-3.26-1.31-9.09-7.62-16.68-9.55-25.57C5.58,4.37,4.07-.26,1.72.01.14.19.99,1.12.76,1.95c-.2.7-.94,1.12-.73,1.92,1.29-.82.76.12,1.3.47,1.56,1,1.89.47,2.18,2.5.07.47.86,1.16-.37.87-1.68-.37-1.96-2.1-3.11-2.88.44,3.06.98,6.07,2.48,8.77,1,1.79,2.48,3.25,3.51,5.12,1.6,2.93,3.93,8.81,3.49,12.1-.37,2.78-2.87,4.13-3.18,5-.12.33-.85,6.51-.84,6.88.25,5.08,2.62,17.3,3.86,22.52,2.17,9.1,5.67,19.45,8.53,28.38,1.86,5.8,3.57,12.68,6.81,17.62l-.72-3.35,3.83.48-2.4.48c2.12,2.12,6.51.49,9.35.44.63-.01,4.34.25,4.54.76l-5.62,3.01c-.62.2-2.2-.63-2.52-.38-.96.77.37.84.69,1,3.54,1.89,4.56.91,8.41.45.03.64.17.93-.32,1.46-.66.73-3.9,1.14-3.51,2.12.56,1.42,4.75,2.1,6.23,2.17.34,1.74-2.86.72-3.63,1.88-.43.66.69,3.05,1.73,3.15l-.97,1.43c1.51,1.74,3.5-2.84,5.25-.48l-4.32,1.99c-1.3-1.47-4.02-3.69-5.11-3.32l1.45-2.97-7.28-.77,2.18-2.97-4.73-2.25c-.55-.11-.45.71-.37,1.13.39,1.87,3.19,7.28,4.75,8.59l.34-1.69c.94-2.32,3.11,3.98,5.83,3.19l-.47,1.47-3.17,1.5c2.62,1.13,4.71-.25,7.28-.75.01-.02,0-.05,0-.07.74-.25,1.44-.45,1.7.49l-1.43.8c-2.67.31-5.65.93-8.15.58l2.22,8.33c-.68,1.2.09,3.52.41,4.69.73,2.67,6.44,13.14,8.21,15.28,2.26,2.73,2.92,2.09,5.58,3.03.78.27,1.18,1.15,1.91,1.44,1.24.49,2.62.37,3.85.95,3.69,1.74,3.05,6.44,4.71,9.66,8.19,15.84,24.64,96.95,29.63,108.6l4.33.67c-2.5-9.07-15.33-63.18-23.2-95.99ZM65.44,152.42l2.64,2.18c-.68.59-2.43,2.12-3.28,1.61-1.06-1.39-1.28-3.01.64-3.79ZM22.53,41.45l1.45,1c.01.44-5.61,3.61-6.7,3.11l5.25-4.12ZM16.36,26.16c0,.73-.17,1.5-.99,1.67-.11-.78-.23-2.32-.73-2.88-.95-1.08-2.07.65-1.38-2.4l-3.17-1.67c-.45-1.05,1.47-.58,1.47-1.91,0-1.01-1.38-1.47-1.72-2.19-.86-1.81,1.33-4-4.06-3.33.23-2.38.84-3.44,3.13-4.26,1.08,2.27,2.65,4.55,3.67,6.81.67,1.49,3.79,9.2,3.78,10.16ZM7.64,4.42l1.49,3.77-2.39-.95c-.34.24-.06,2.84-1.2,2.39-2.31-.9-.67-6.32,2.1-5.2ZM8.42,20.16l-2.67-4.97,2.43-.78.21,3.39,1.71.45-1.68,1.91ZM9.37,36c1.74-1.05,3.55-1.9,5.51-.97l-5.05,2.38c-.54.4-1.37.58-1.65-.24-.29-.85.78-.92,1.19-1.17ZM11.53,38.86c.48,1.56-4.05,2.67-4.31,2.4-.51-2.76,2.12-3.11,4.31-2.4ZM13.93,40.3c.84,1.33-3.21,1.31-1.91,2.39.82.68,4.26-3.69,5.27-.96-1.88.21-3.77,2.15-5.52,2.4-1.42.21-.62-1.3.25-1.19l-1.6-.66-2.48,2.81-1.15-1.25c-.26-1.37,5.79-3.52,7.14-3.52ZM7.7,47.49l1.19.95c1.41-1.74.75-2.95,3.6-2.4.18,2.79-1.17,1.99-2.86,3.11l1.82.79.04,1.8-2.51.1-1.28-4.36ZM9.42,53.66c2.04-.98,3.87.15,5.95.06-.49,1.14-5.65,3.46-6.23,2.87l.28-2.93ZM9.15,58.74c-.01-1.14,4.82-.62,5.74-.71.21,1.09-.07.76-.62,1.07-1.6.89-3.99,1.47-5.13-.36ZM10.14,62.66c.43-1.33,4.4-2.15,5.71-1.27l-2.87,2.39,7.66-1.91c.32,4.19-11.94,5.28-10.5.79ZM33.58,98.29c.82,2.79-8.18,4.88-8.14,3.11.97-.89,7.45-3.74,8.14-3.11ZM32.14,84.87c-.42,1.09-2.57,1.48-3.08,2.37-.29.5.62,1.16-.58,1.85-1.68.97-4.6.62-6.4.07-.52-.7,9.01-4.39,10.06-4.3ZM20.46,75.34c1.65-.18,3.33,0,4.98-.05-2.27,2.14-4.56,3.63-7.19,1.19-.27-.97,1.66-1.08,2.21-1.14ZM14.14,76.7c2.21-1.35,2.58-.29,3.81.8.42.38,1.18.51,1.26,1.13-1.04,0-2.52-.26-2.88.96.92,1.11,9.2-2.3,11.01-.23-3.28,2.89-7.64,2.15-11.66,2.09l-1.54-4.74ZM17.53,85.35h7.43c-.65.85-3.72,2.32-4.59,2.38-2.34.16-4.59-2.38-2.84-2.38ZM17.76,88.71l5.75,1.44-3.36.96c2.5,2.89,6.7-1.09,9.58.71-2.95,1.63-6.87,2.3-10.24,2.19l-1.74-5.3ZM20.17,95.89l5.74,1.44-3.35.48c.15,2.51,2.81,1,4.31.96l-2.67,2.89c-3.13-.4-3.65-3.06-4.03-5.77ZM31.4,108.33c-.68.04-6.81-1.33-7.38-1.69-1.17-.75-1.59-2.23-1.46-3.57,1.44-.34,1.98,1.36,2.54,1.76,2.65,1.85,7.55-2.12,10.87-1.27.42.71-4.2,2.01-2.17,2.38,1.11-.13,4.76-3.55,5.52-1.66.38.97-3.27,1.77-3.82,2.4-1.19.33-2.99,1.57-4.11,1.65ZM38.04,135.1l2.32-.74.89.36-.96,2.17-2.32-.21c-.27-.6-.32-1.14.07-1.58ZM37.92,144.55c.74-.21,1.33-.45,1.78-.71.17,1.1.34,2.24,1.08,3.33-1.04.81-2.07-.66-2.85-2.62ZM42.5,140.04c-.65.24-1.33.36-2.01.41-.3-.54-.7-1.09-1.11-1.64,1.27.26,2.85.17,3.77.22.16,1.16,0,.76-.66,1.01ZM44.1,133.5c-.64.22-1.3.29-1.96.3l3.13-1c-.62.39-1.08.66-1.17.7ZM45.56,153.4c1.29-.21,1.46,1.13,2.08,1.75.53.52,1.56.73,1.75,1.6-2.27.3-3.76-1.06-3.83-3.35ZM47.05,153.34l-.8-2.32c-.44-1.85,5.14-.67,5.54,1.19.35,1.67-3.77,1.22-4.74,1.13ZM55.51,162.88c-1.28-.13-1.53-.57-1.32-1.81l4.78.96c-.35.83-2.74.92-3.47.85Z"/><path class="d" d="M53.36,86.27c.21.63,9,10.8,10.07,11.75,1.14,1,3.59.29,4.51.48-4.11-4.62-9.83-10.21-13.37-14.59.11.11-1.63,1.14-1.22,2.36Z"/></g></svg>